<mxfile host="Electron" modified="2024-09-23T14:44:04.133Z" agent="Mozilla/5.0 (Windows NT 10.0; Win64; x64) AppleWebKit/537.36 (KHTML, like Gecko) draw.io/22.1.2 Chrome/114.0.5735.289 Electron/25.9.4 Safari/537.36" etag="uysyys7KIKr1xP51-9Fh" version="22.1.2" type="device">
  <diagram name="Page-1" id="wbxgy4pRAHx9USgSSyO9">
    <mxGraphModel dx="1180" dy="682" grid="1" gridSize="10" guides="1" tooltips="1" connect="1" arrows="1" fold="1" page="1" pageScale="1" pageWidth="850" pageHeight="1100" math="0" shadow="0">
      <root>
        <mxCell id="0" />
        <mxCell id="1" parent="0" />
        <mxCell id="BZoQDPlF4twrkI9_zgrf-5" value="" style="rounded=0;whiteSpace=wrap;html=1;fontColor=default;fillColor=none;dashed=1;" vertex="1" parent="1">
          <mxGeometry x="280" y="205" width="330" height="390" as="geometry" />
        </mxCell>
        <mxCell id="BZoQDPlF4twrkI9_zgrf-1" value="P" style="rounded=0;whiteSpace=wrap;html=1;fontSize=28;" vertex="1" parent="1">
          <mxGeometry x="360" y="240" width="120" height="80" as="geometry" />
        </mxCell>
        <mxCell id="BZoQDPlF4twrkI9_zgrf-2" value="I" style="rounded=0;whiteSpace=wrap;html=1;fontSize=28;" vertex="1" parent="1">
          <mxGeometry x="360" y="360" width="120" height="80" as="geometry" />
        </mxCell>
        <mxCell id="BZoQDPlF4twrkI9_zgrf-3" value="D" style="rounded=0;whiteSpace=wrap;html=1;fontSize=28;" vertex="1" parent="1">
          <mxGeometry x="360" y="480" width="120" height="80" as="geometry" />
        </mxCell>
        <mxCell id="BZoQDPlF4twrkI9_zgrf-4" value="&lt;font style=&quot;font-size: 28px;&quot;&gt;&lt;b&gt;+&lt;/b&gt;&lt;/font&gt;" style="ellipse;whiteSpace=wrap;html=1;" vertex="1" parent="1">
          <mxGeometry x="520" y="375" width="50" height="50" as="geometry" />
        </mxCell>
        <mxCell id="BZoQDPlF4twrkI9_zgrf-9" value="" style="endArrow=none;html=1;rounded=0;entryX=0;entryY=0.5;entryDx=0;entryDy=0;" edge="1" parent="1" target="BZoQDPlF4twrkI9_zgrf-2">
          <mxGeometry width="50" height="50" relative="1" as="geometry">
            <mxPoint x="80" y="400" as="sourcePoint" />
            <mxPoint x="260" y="400" as="targetPoint" />
          </mxGeometry>
        </mxCell>
        <mxCell id="BZoQDPlF4twrkI9_zgrf-10" value="" style="endArrow=none;html=1;rounded=0;entryX=0;entryY=0.5;entryDx=0;entryDy=0;" edge="1" parent="1">
          <mxGeometry width="50" height="50" relative="1" as="geometry">
            <mxPoint x="320" y="280" as="sourcePoint" />
            <mxPoint x="360" y="279.58000000000004" as="targetPoint" />
          </mxGeometry>
        </mxCell>
        <mxCell id="BZoQDPlF4twrkI9_zgrf-12" value="" style="endArrow=none;html=1;rounded=0;entryX=0;entryY=0.5;entryDx=0;entryDy=0;" edge="1" parent="1">
          <mxGeometry width="50" height="50" relative="1" as="geometry">
            <mxPoint x="320" y="520" as="sourcePoint" />
            <mxPoint x="360" y="519.58" as="targetPoint" />
          </mxGeometry>
        </mxCell>
        <mxCell id="BZoQDPlF4twrkI9_zgrf-16" value="" style="endArrow=none;html=1;rounded=0;startArrow=oval;startFill=1;" edge="1" parent="1">
          <mxGeometry width="50" height="50" relative="1" as="geometry">
            <mxPoint x="320" y="400" as="sourcePoint" />
            <mxPoint x="320" y="280" as="targetPoint" />
          </mxGeometry>
        </mxCell>
        <mxCell id="BZoQDPlF4twrkI9_zgrf-17" value="" style="endArrow=none;html=1;rounded=0;startArrow=none;startFill=0;" edge="1" parent="1">
          <mxGeometry width="50" height="50" relative="1" as="geometry">
            <mxPoint x="320" y="520" as="sourcePoint" />
            <mxPoint x="320" y="400" as="targetPoint" />
          </mxGeometry>
        </mxCell>
        <mxCell id="BZoQDPlF4twrkI9_zgrf-18" value="" style="endArrow=none;html=1;rounded=0;" edge="1" parent="1">
          <mxGeometry width="50" height="50" relative="1" as="geometry">
            <mxPoint x="480" y="399.58" as="sourcePoint" />
            <mxPoint x="520" y="400" as="targetPoint" />
          </mxGeometry>
        </mxCell>
        <mxCell id="BZoQDPlF4twrkI9_zgrf-19" value="" style="endArrow=none;html=1;rounded=0;entryX=0.5;entryY=0;entryDx=0;entryDy=0;" edge="1" parent="1" target="BZoQDPlF4twrkI9_zgrf-4">
          <mxGeometry width="50" height="50" relative="1" as="geometry">
            <mxPoint x="480" y="279.58000000000004" as="sourcePoint" />
            <mxPoint x="760" y="279.58000000000004" as="targetPoint" />
            <Array as="points">
              <mxPoint x="545" y="280" />
            </Array>
          </mxGeometry>
        </mxCell>
        <mxCell id="BZoQDPlF4twrkI9_zgrf-20" value="" style="endArrow=none;html=1;rounded=0;entryX=0.5;entryY=1;entryDx=0;entryDy=0;" edge="1" parent="1" target="BZoQDPlF4twrkI9_zgrf-4">
          <mxGeometry width="50" height="50" relative="1" as="geometry">
            <mxPoint x="480" y="519.58" as="sourcePoint" />
            <mxPoint x="760" y="519.58" as="targetPoint" />
            <Array as="points">
              <mxPoint x="545" y="520" />
            </Array>
          </mxGeometry>
        </mxCell>
        <mxCell id="BZoQDPlF4twrkI9_zgrf-21" value="" style="endArrow=none;html=1;rounded=0;" edge="1" parent="1">
          <mxGeometry width="50" height="50" relative="1" as="geometry">
            <mxPoint x="570" y="399.58" as="sourcePoint" />
            <mxPoint x="680" y="400" as="targetPoint" />
          </mxGeometry>
        </mxCell>
        <mxCell id="BZoQDPlF4twrkI9_zgrf-22" value="PID Regler" style="text;html=1;strokeColor=none;fillColor=none;align=center;verticalAlign=middle;whiteSpace=wrap;rounded=0;" vertex="1" parent="1">
          <mxGeometry x="220" y="175" width="190" height="30" as="geometry" />
        </mxCell>
      </root>
    </mxGraphModel>
  </diagram>
</mxfile>
